<svg id="Layer_1" data-name="Layer 1" xmlns="http://www.w3.org/2000/svg" viewBox="0 0 720 562.56"><defs><style>.cls-1{fill:#1e96c7;}.cls-2{fill:#ef6521;}.cls-3{fill:#f8a818;}.cls-4{fill:#e8510d;}</style></defs><title>logo</title><path class="cls-1" d="M511.5,87.5c194.56,0,353.06,163.56,359.77,368q.22-6.72.23-13.5c0-210.7-161.18-381.5-360-381.5s-360,170.8-360,381.5q0,6.78.23,13.5C158.44,251.06,316.94,87.5,511.5,87.5Z" transform="translate(-151.5 -60.5)"/><circle class="cls-1" cx="363.5" cy="170.5" r="35"/><path class="cls-2" d="M359,525c7,2,38,3,52,6s63,23,69,28-31-10-71-12-81,2-109,8-17,5-17,5V309l25-12V531" transform="translate(-151.5 -60.5)"/><path class="cls-2" d="M672,525c-7,2-38,3-52,6s-63,23-69,28,31-10,71-12,81,2,109,8,17,5,17,5V309l-25-12V531" transform="translate(-151.5 -60.5)"/><path class="cls-3" d="M299,572c30-12,53.68-12,68-12,39,0,90,0,96,5s-86.62-1.91-129,13c-54,19-51,34-79,40s-17,5-17,5V372l25-12V594" transform="translate(-151.5 -60.5)"/><path class="cls-3" d="M729,572c-30-12-53.68-12-68-12-39,0-90,0-96,5s86.62-1.91,129,13c54,19,51,34,79,40s17,5,17,5V372l-25-12V594" transform="translate(-151.5 -60.5)"/><path class="cls-4" d="M418,287l-9-21s-27-8-46-8H331V511s21-3,37,0,35,6,50,11,38,14,45,19,34,19,34,19-10-16-16-19-28-22-36-24-30-17-42-17-36-5-44-4-3-222-3-222Z" transform="translate(-151.5 -60.5)"/><path class="cls-4" d="M609,287l9-21s27-8,46-8h32V511s-21-3-37,0-35,6-50,11-38,14-45,19-34,19-34,19,10-16,16-19,28-22,36-24,30-17,42-17,36-5,44-4,3-222,3-222Z" transform="translate(-151.5 -60.5)"/><polygon class="cls-1" points="335.53 149.46 299.5 122.5 378.5 122.5 428.5 156.5 418.5 156.5 419.15 185.57 413.5 191.5 413.5 157.5 335.53 149.46"/><path class="cls-1" d="M347,154c-7.27-3.16-2.1.27,8.93,7.06C352.45,157.5,349.42,155.05,347,154Z" transform="translate(-151.5 -60.5)"/><path class="cls-1" d="M589.75,214.5C572,234,516,322,516,322v3.43c-7.6-11.88-56.4-88-72.75-105.93-12.13-13.34-63.46-43.75-87.32-58.44,29.59,30.22,92.55,141.17,105.12,168.6C475.1,360.32,517,570,517,570V560c6.44-31.9,42.19-207.52,55-235.37,12.57-27.43,75.53-138.38,105.12-168.6C653.21,170.75,601.88,201.16,589.75,214.5Z" transform="translate(-151.5 -60.5)"/><path class="cls-1" d="M686,149c-2.42,1.05-5.45,3.5-8.93,7.06C688.1,149.27,693.27,145.84,686,149Z" transform="translate(-151.5 -60.5)"/></svg>